# xmcd
#
# Track frame offsets:
#	150
#	27871
#	49765
#	71456
#	89769
#	110118
#	138889
#	160923
#	176579
#	200779
#	221608
#	245285
#	261484
#	283343
#	307154
#
# Disc length: 4521 seconds
#
# Revision: 1
# Processed by: cddbd v1.5.2PL0 Copyright (c) Steve Scherf et al.
# Submitted via: audiograbber 1.83.01
#
DISCID=ee11a70f
DTITLE=Various Artist - Трансмиссия.RU vol.4 (mixed by DJ Feel)
DYEAR=2008
DGENRE=Trance
TTITLE0=The Orange feat. Bredin - Вспышка (Poison Pro Remix)
TTITLE1=Aurosonic - Missing You
TTITLE2=Sergey Tkachev ft Anna Basel - Two Worlds
TTITLE3=Duality - Delusion
TTITLE4=Musical Religion feat. Valeria Zhidkova - Masquerade (Original Mix)
TTITLE5=Alexander Popov - Rising Star
TTITLE6=In Progress - Avalance
TTITLE7=Darkalbedo - Can't Help Myself (Paul Vinitsky Remix)
TTITLE8=Front - Cosmic Spring (Original Aurora Mix)
TTITLE9=Aephoria - Unknown Source (Original Mix)
TTITLE10=Inglide - Logistic
TTITLE11=Costa - Be With You (JMV Remix)
TTITLE12=Exterria - Deep Feelings
TTITLE13=Epica - Secret
TTITLE14=Anton Firtich - Rain Over The Ocean (Original Mix)
EXTD=Trancemission.RU vol.4 (mixed by DJ Feel]\nLabels: Record and Trancemission
EXTT0=The Orange feat. Bredin - Vspyshka (Poison Pro Remix)
EXTT1=
EXTT2=
EXTT3=
EXTT4=
EXTT5=
EXTT6=
EXTT7=
EXTT8=
EXTT9=
EXTT10=
EXTT11=
EXTT12=
EXTT13=
EXTT14=
PLAYORDER=
